Patient4_TMGait_0pt3_02_left_13_GRF.mot
version=1
nRows=32
nColumns=19
inDegrees=no
endheader
time	F1x	F1y	F1z	M1x	M1y	M1z	F2x	F2y	F2z	M2x	M2y	M2z	EC1x	EC1y	EC1z	EC2x	EC2y	EC2z
25.29	-2.7874	13.8335	0.78396	-3.796	-2.898	14.0298	-21.626	767.0164	-56.8726	278.1325	64.6665	737.4887	-0.0592	0.0182	-0.0073	-0.0462	0.0165	0.9585
25.3081	-2.1808	9.8167	0.59991	-2.7551	-2.1555	9.9597	-18.8167	788.9277	-57.2682	286.3756	63.7663	752.994	-0.0592	0.0182	-0.0073	-0.0462	0.0165	0.9585
25.3263	-1.5371	6.2739	0.40812	-1.8231	-1.4414	6.3861	-16.1966	813.8123	-57.6301	295.7717	62.7783	770.8487	-0.0592	0.0182	-0.0073	-0.0462	0.0165	0.9585
25.3444	-0.96604	3.4953	0.2391	-1.0825	-0.84156	3.596	-14.0228	839.6394	-57.9398	305.5298	61.7754	789.4663	-0.0592	0.0182	-0.0073	-0.0462	0.0165	0.9585
25.3626	-0.51868	1.5283	0.10481	-0.55128	-0.38748	1.6309	-12.3916	863.9355	-58.1684	314.6882	60.7807	806.7839	-0.0592	0.0182	-0.0073	-0.0462	0.0165	0.9585
25.3807	-0.20658	0.28382	0.0072113	-0.21021	-0.080101	0.39215	-11.2473	884.1051	-58.2508	322.2495	59.7398	820.5544	-0.0592	0.0182	-0.0073	-0.0462	0.0165	0.9585
25.3989	-0.019813	-0.3972	-0.054407	-0.017972	0.096186	-0.29041	-10.4274	897.7597	-58.1034	327.3089	58.5474	828.6644	-0.0592	0.0182	-0.0073	-0.0462	0.0165	0.9585
25.417	0.062083	-0.7004	-0.083307	0.074285	0.16772	-0.60441	-9.7381	903.0687	-57.664	329.1849	57.1068	829.4701	-0.0592	0.0182	-0.0073	-0.0462	0.0165	0.9585
25.4351	0.062828	-0.80488	-0.087439	0.11632	0.16655	-0.72664	-9.0021	899.0676	-56.901	327.5315	55.3542	822.0902	-0.0592	0.0182	-0.0073	-0.0462	0.0165	0.9585
25.4533	0.00046104	-0.8723	-0.077177	0.15707	0.12217	-0.8173	-8.0544	885.8656	-55.7974	322.4108	53.2443	806.6021	-0.0592	0.0182	-0.0073	-0.0462	0.0165	0.9585
25.4714	-0.10807	-1.0415	-0.062051	0.24136	0.056989	-1.0104	-6.7603	864.6525	-54.3509	314.2881	50.7541	784.0528	-0.0592	0.0182	-0.0073	-0.0462	0.0165	0.9585
25.4896	-0.24379	-1.4231	-0.050169	0.4069	-0.011904	-1.4104	-5.0483	837.477	-52.5988	303.9442	47.9104	756.2614	-0.0592	0.0182	-0.0073	-0.0462	0.0165	0.9585
25.5077	-0.3833	-2.0895	-0.047674	0.67863	-0.069047	-2.0916	-2.9079	806.9083	-50.637	292.3464	44.8051	725.5083	-0.0592	0.0182	-0.0073	-0.0462	0.0165	0.9585
25.5259	-0.49945	-3.0659	-0.058778	1.0648	-0.097538	-3.0817	-0.37061	775.6617	-48.5925	280.5095	41.5668	694.1982	-0.0592	0.0182	-0.0073	-0.0462	0.0165	0.9585
25.544	-0.55331	-4.3032	-0.083567	1.546	-0.082686	-4.328	2.4881	746.2512	-46.5802	269.3699	38.3231	664.5497	-0.0592	0.0182	-0.0073	-0.0462	0.0165	0.9585
25.5621	-0.48599	-5.6389	-0.11862	2.0597	-0.010272	-5.6688	5.5526	720.7347	-44.6842	259.694	35.1857	638.3619	-0.0592	0.0182	-0.0073	-0.0462	0.0165	0.9585
25.5803	-0.22573	-6.7523	-0.15722	2.4843	0.13582	-6.789	8.6981	700.5754	-42.9689	252.0286	32.2468	616.8947	-0.0592	0.0182	-0.0073	-0.0462	0.0165	0.9585
25.5984	0.30985	-7.12	-0.1843	2.6224	0.3697	-7.1686	11.8101	686.5515	-41.4907	246.6671	29.5824	600.7941	-0.0592	0.0182	-0.0073	-0.0462	0.0165	0.9585
25.6166	1.2005	-5.9864	-0.17273	2.1845	0.69577	-6.0567	14.7971	678.6968	-40.3164	243.6285	27.2663	590.0512	-0.0592	0.0182	-0.0073	-0.0462	0.0165	0.9585
25.6347	2.5039	-2.348	-0.084909	0.78498	1.1011	-2.4565	17.5911	676.3397	-39.515	242.6725	25.3668	584.0521	-0.0592	0.0182	-0.0073	-0.0462	0.0165	0.9585
25.6529	4.227	5.0056	0.12237	-2.0413	1.5468	4.8428	20.1449	678.2054	-39.1237	243.3348	23.9159	581.6633	-0.0592	0.0182	-0.0073	-0.0462	0.0165	0.9585
25.671	6.2812	17.3483	0.49302	-6.7841	1.9563	17.1232	22.4197	682.5558	-39.1309	244.9775	22.9004	581.3796	-0.0592	0.0182	-0.0073	-0.0462	0.0165	0.9585
25.6891	8.4177	35.7421	1.0657	-13.8507	2.197	35.4606	24.3588	687.3275	-39.4627	246.8402	22.2669	581.4645	-0.0592	0.0182	-0.0073	-0.0462	0.0165	0.9585
25.7073	10.0997	60.6316	1.8712	-23.4093	2.0326	60.3259	25.8914	690.2453	-39.9756	248.0843	21.9207	580.0548	-0.0592	0.0182	-0.0073	-0.0462	0.0165	0.9585
25.7254	10.4508	91.5025	2.9661	-35.2534	1.0724	91.2453	26.9692	689.0512	-40.4735	247.8763	21.7263	575.3479	-0.0592	0.0182	-0.0073	-0.0462	0.0165	0.9585
25.7436	9.002	127.0459	4.4772	-48.8624	-0.98928	126.9568	27.5805	681.8369	-40.7392	245.5073	21.5253	565.8654	-0.0592	0.0182	-0.0073	-0.0462	0.0165	0.9585
25.7617	6.0444	165.3074	6.621	-63.459	-4.2639	165.4856	27.7439	667.3351	-40.5923	240.4972	21.1799	550.6811	-0.0592	0.0182	-0.0073	-0.0462	0.0165	0.9585
25.7799	2.2253	203.9196	9.4949	-78.1292	-8.6087	204.3628	27.494	645.129	-39.9282	232.6747	20.6057	529.5648	-0.0592	0.0182	-0.0073	-0.0462	0.0165	0.9585
25.798	-1.7218	241.2346	12.7795	-92.269	-13.4161	241.8201	26.9006	615.798	-38.7257	222.2334	19.7682	503.0695	-0.0592	0.0182	-0.0073	-0.0462	0.0165	0.9585
25.8161	-5.2658	276.8264	15.9604	-105.7515	-17.9568	277.3362	26.0709	580.8219	-37.0523	209.6977	18.6879	472.4369	-0.0592	0.0182	-0.0073	-0.0462	0.0165	0.9585
25.8343	-8.0972	310.826	18.7059	-118.6495	-21.7883	310.9963	25.0881	542.1538	-35.0478	195.7681	17.444	439.257	-0.0592	0.0182	-0.0073	-0.0462	0.0165	0.9585
25.8524	-10.0644	343.1531	20.8544	-130.9378	-24.7057	342.7117	23.9646	501.7349	-32.879	181.1478	16.1552	405.0819	-0.0592	0.0182	-0.0073	-0.0462	0.0165	0.9585
